<svg xmlns="http://www.w3.org/2000/svg" xmlns:xlink="http://www.w3.org/1999/xlink" contentStyleType="text/css" data-diagram-type="CLASS" height="982px" preserveAspectRatio="none" style="width:1208px;height:982px;background:#FDFDFD;" version="1.1" viewBox="0 0 1208 982" width="1208px" zoomAndPan="magnify"><defs/><g><rect fill="#FDFDFD" height="982" style="stroke:none;stroke-width:1;" width="1208" x="0" y="0"/><!--class Region--><g class="entity" data-entity="Region" data-source-line="13" data-uid="ent0002" id="entity_Region"><rect fill="#E1F5FE" height="80.5938" rx="2.5" ry="2.5" style="stroke:#01579B;stroke-width:0.5;" width="149.334" x="40.5" y="689"/><ellipse cx="86.6392" cy="705" fill="#ADD1B2" rx="11" ry="11" style="stroke:#181818;stroke-width:1;"/><path d="M89.6079,710.6406 Q89.0298,710.9375 88.3892,711.0781 Q87.7485,711.2344 87.0454,711.2344 Q84.5454,711.2344 83.2173,709.5938 Q81.9048,707.9375 81.9048,704.8125 Q81.9048,701.6875 83.2173,700.0313 Q84.5454,698.375 87.0454,698.375 Q87.7485,698.375 88.3892,698.5313 Q89.0454,698.6875 89.6079,698.9844 L89.6079,701.7031 Q88.9829,701.125 88.3892,700.8594 Q87.7954,700.5781 87.1704,700.5781 Q85.8267,700.5781 85.1392,701.6563 Q84.4517,702.7188 84.4517,704.8125 Q84.4517,706.9063 85.1392,707.9844 Q85.8267,709.0469 87.1704,709.0469 Q87.7954,709.0469 88.3892,708.7813 Q88.9829,708.5 89.6079,707.9219 L89.6079,710.6406 Z " fill="#000000"/><text fill="#000000" font-family="sans-serif" font-size="14" lengthAdjust="spacing" textLength="48.5557" x="107.1392" y="709.8467">Region</text><line style="stroke:#01579B;stroke-width:0.5;" x1="41.5" x2="188.834" y1="721" y2="721"/><rect fill="none" height="6" style="stroke:#C82930;stroke-width:1;" width="6" x="48.5" y="731.6484"/><text fill="#000000" font-family="sans-serif" font-size="14" lengthAdjust="spacing" textLength="90.6514" x="60.5" y="737.9951">name: String</text><rect fill="none" height="6" style="stroke:#C82930;stroke-width:1;" width="6" x="48.5" y="747.9453"/><text fill="#000000" font-family="sans-serif" font-size="14" lengthAdjust="spacing" textLength="123.334" x="60.5" y="754.292">type: RegionType</text><line style="stroke:#01579B;stroke-width:0.5;" x1="41.5" x2="188.834" y1="761.5938" y2="761.5938"/></g><!--class Locality--><g class="entity" data-entity="Locality" data-source-line="18" data-uid="ent0003" id="entity_Locality"><rect fill="#E1F5FE" height="80.5938" rx="2.5" ry="2.5" style="stroke:#01579B;stroke-width:0.5;" width="154.9736" x="243.5" y="689"/><ellipse cx="289.6392" cy="705" fill="#ADD1B2" rx="11" ry="11" style="stroke:#181818;stroke-width:1;"/><path d="M292.6079,710.6406 Q292.0298,710.9375 291.3892,711.0781 Q290.7485,711.2344 290.0454,711.2344 Q287.5454,711.2344 286.2173,709.5938 Q284.9048,707.9375 284.9048,704.8125 Q284.9048,701.6875 286.2173,700.0313 Q287.5454,698.375 290.0454,698.375 Q290.7485,698.375 291.3892,698.5313 Q292.0454,698.6875 292.6079,698.9844 L292.6079,701.7031 Q291.9829,701.125 291.3892,700.8594 Q290.7954,700.5781 290.1704,700.5781 Q288.8267,700.5781 288.1392,701.6563 Q287.4517,702.7188 287.4517,704.8125 Q287.4517,706.9063 288.1392,707.9844 Q288.8267,709.0469 290.1704,709.0469 Q290.7954,709.0469 291.3892,708.7813 Q291.9829,708.5 292.6079,707.9219 L292.6079,710.6406 Z " fill="#000000"/><text fill="#000000" font-family="sans-serif" font-size="14" lengthAdjust="spacing" textLength="54.1953" x="310.1392" y="709.8467">Locality</text><line style="stroke:#01579B;stroke-width:0.5;" x1="244.5" x2="397.4736" y1="721" y2="721"/><rect fill="none" height="6" style="stroke:#C82930;stroke-width:1;" width="6" x="251.5" y="731.6484"/><text fill="#000000" font-family="sans-serif" font-size="14" lengthAdjust="spacing" textLength="90.6514" x="263.5" y="737.9951">name: String</text><rect fill="none" height="6" style="stroke:#C82930;stroke-width:1;" width="6" x="251.5" y="747.9453"/><text fill="#000000" font-family="sans-serif" font-size="14" lengthAdjust="spacing" textLength="128.9736" x="263.5" y="754.292">type: LocalityType</text><line style="stroke:#01579B;stroke-width:0.5;" x1="244.5" x2="397.4736" y1="761.5938" y2="761.5938"/></g><!--class PlanningElement--><g class="entity" data-entity="PlanningElement" data-source-line="23" data-uid="ent0004" id="entity_PlanningElement"><rect fill="#E1F5FE" height="80.5938" rx="2.5" ry="2.5" style="stroke:#01579B;stroke-width:0.5;" width="219.0469" x="433.5" y="689"/><ellipse cx="479.6392" cy="705" fill="#ADD1B2" rx="11" ry="11" style="stroke:#181818;stroke-width:1;"/><path d="M482.6079,710.6406 Q482.0298,710.9375 481.3892,711.0781 Q480.7485,711.2344 480.0454,711.2344 Q477.5454,711.2344 476.2173,709.5938 Q474.9048,707.9375 474.9048,704.8125 Q474.9048,701.6875 476.2173,700.0313 Q477.5454,698.375 480.0454,698.375 Q480.7485,698.375 481.3892,698.5313 Q482.0454,698.6875 482.6079,698.9844 L482.6079,701.7031 Q481.9829,701.125 481.3892,700.8594 Q480.7954,700.5781 480.1704,700.5781 Q478.8267,700.5781 478.1392,701.6563 Q477.4517,702.7188 477.4517,704.8125 Q477.4517,706.9063 478.1392,707.9844 Q478.8267,709.0469 480.1704,709.0469 Q480.7954,709.0469 481.3892,708.7813 Q481.9829,708.5 482.6079,707.9219 L482.6079,710.6406 Z " fill="#000000"/><text fill="#000000" font-family="sans-serif" font-size="14" lengthAdjust="spacing" textLength="118.2686" x="500.1392" y="709.8467">PlanningElement</text><line style="stroke:#01579B;stroke-width:0.5;" x1="434.5" x2="651.5469" y1="721" y2="721"/><rect fill="none" height="6" style="stroke:#C82930;stroke-width:1;" width="6" x="441.5" y="731.6484"/><text fill="#000000" font-family="sans-serif" font-size="14" lengthAdjust="spacing" textLength="90.6514" x="453.5" y="737.9951">name: String</text><rect fill="none" height="6" style="stroke:#C82930;stroke-width:1;" width="6" x="441.5" y="747.9453"/><text fill="#000000" font-family="sans-serif" font-size="14" lengthAdjust="spacing" textLength="193.0469" x="453.5" y="754.292">type: PlanningElementType</text><line style="stroke:#01579B;stroke-width:0.5;" x1="434.5" x2="651.5469" y1="761.5938" y2="761.5938"/></g><!--class Street--><g class="entity" data-entity="Street" data-source-line="28" data-uid="ent0005" id="entity_Street"><rect fill="#E1F5FE" height="80.5938" rx="2.5" ry="2.5" style="stroke:#01579B;stroke-width:0.5;" width="143.626" x="688" y="689"/><ellipse cx="734.1392" cy="705" fill="#ADD1B2" rx="11" ry="11" style="stroke:#181818;stroke-width:1;"/><path d="M737.1079,710.6406 Q736.5298,710.9375 735.8892,711.0781 Q735.2485,711.2344 734.5454,711.2344 Q732.0454,711.2344 730.7173,709.5938 Q729.4048,707.9375 729.4048,704.8125 Q729.4048,701.6875 730.7173,700.0313 Q732.0454,698.375 734.5454,698.375 Q735.2485,698.375 735.8892,698.5313 Q736.5454,698.6875 737.1079,698.9844 L737.1079,701.7031 Q736.4829,701.125 735.8892,700.8594 Q735.2954,700.5781 734.6704,700.5781 Q733.3267,700.5781 732.6392,701.6563 Q731.9517,702.7188 731.9517,704.8125 Q731.9517,706.9063 732.6392,707.9844 Q733.3267,709.0469 734.6704,709.0469 Q735.2954,709.0469 735.8892,708.7813 Q736.4829,708.5 737.1079,707.9219 L737.1079,710.6406 Z " fill="#000000"/><text fill="#000000" font-family="sans-serif" font-size="14" lengthAdjust="spacing" textLength="42.8477" x="754.6392" y="709.8467">Street</text><line style="stroke:#01579B;stroke-width:0.5;" x1="689" x2="830.626" y1="721" y2="721"/><rect fill="none" height="6" style="stroke:#C82930;stroke-width:1;" width="6" x="696" y="731.6484"/><text fill="#000000" font-family="sans-serif" font-size="14" lengthAdjust="spacing" textLength="90.6514" x="708" y="737.9951">name: String</text><rect fill="none" height="6" style="stroke:#C82930;stroke-width:1;" width="6" x="696" y="747.9453"/><text fill="#000000" font-family="sans-serif" font-size="14" lengthAdjust="spacing" textLength="117.626" x="708" y="754.292">type: StreetType</text><line style="stroke:#01579B;stroke-width:0.5;" x1="689" x2="830.626" y1="761.5938" y2="761.5938"/></g><!--class Building--><g class="entity" data-entity="Building" data-source-line="33" data-uid="ent0006" id="entity_Building"><rect fill="#E1F5FE" height="80.5938" rx="2.5" ry="2.5" style="stroke:#01579B;stroke-width:0.5;" width="157.5713" x="867" y="689"/><ellipse cx="913.1392" cy="705" fill="#ADD1B2" rx="11" ry="11" style="stroke:#181818;stroke-width:1;"/><path d="M916.1079,710.6406 Q915.5298,710.9375 914.8892,711.0781 Q914.2485,711.2344 913.5454,711.2344 Q911.0454,711.2344 909.7173,709.5938 Q908.4048,707.9375 908.4048,704.8125 Q908.4048,701.6875 909.7173,700.0313 Q911.0454,698.375 913.5454,698.375 Q914.2485,698.375 914.8892,698.5313 Q915.5454,698.6875 916.1079,698.9844 L916.1079,701.7031 Q915.4829,701.125 914.8892,700.8594 Q914.2954,700.5781 913.6704,700.5781 Q912.3267,700.5781 911.6392,701.6563 Q910.9517,702.7188 910.9517,704.8125 Q910.9517,706.9063 911.6392,707.9844 Q912.3267,709.0469 913.6704,709.0469 Q914.2954,709.0469 914.8892,708.7813 Q915.4829,708.5 916.1079,707.9219 L916.1079,710.6406 Z " fill="#000000"/><text fill="#000000" font-family="sans-serif" font-size="14" lengthAdjust="spacing" textLength="56.793" x="933.6392" y="709.8467">Building</text><line style="stroke:#01579B;stroke-width:0.5;" x1="868" x2="1023.5713" y1="721" y2="721"/><rect fill="none" height="6" style="stroke:#C82930;stroke-width:1;" width="6" x="875" y="731.6484"/><text fill="#000000" font-family="sans-serif" font-size="14" lengthAdjust="spacing" textLength="105.5879" x="887" y="737.9951">number: String</text><rect fill="none" height="6" style="stroke:#C82930;stroke-width:1;" width="6" x="875" y="747.9453"/><text fill="#000000" font-family="sans-serif" font-size="14" lengthAdjust="spacing" textLength="131.5713" x="887" y="754.292">type: BuildingType</text><line style="stroke:#01579B;stroke-width:0.5;" x1="868" x2="1023.5713" y1="761.5938" y2="761.5938"/></g><!--class Room--><g class="entity" data-entity="Room" data-source-line="38" data-uid="ent0007" id="entity_Room"><rect fill="#E1F5FE" height="80.5938" rx="2.5" ry="2.5" style="stroke:#01579B;stroke-width:0.5;" width="141.2744" x="1060.5" y="689"/><ellipse cx="1106.6392" cy="705" fill="#ADD1B2" rx="11" ry="11" style="stroke:#181818;stroke-width:1;"/><path d="M1109.6079,710.6406 Q1109.0298,710.9375 1108.3892,711.0781 Q1107.7485,711.2344 1107.0454,711.2344 Q1104.5454,711.2344 1103.2173,709.5938 Q1101.9048,707.9375 1101.9048,704.8125 Q1101.9048,701.6875 1103.2173,700.0313 Q1104.5454,698.375 1107.0454,698.375 Q1107.7485,698.375 1108.3892,698.5313 Q1109.0454,698.6875 1109.6079,698.9844 L1109.6079,701.7031 Q1108.9829,701.125 1108.3892,700.8594 Q1107.7954,700.5781 1107.1704,700.5781 Q1105.8267,700.5781 1105.1392,701.6563 Q1104.4517,702.7188 1104.4517,704.8125 Q1104.4517,706.9063 1105.1392,707.9844 Q1105.8267,709.0469 1107.1704,709.0469 Q1107.7954,709.0469 1108.3892,708.7813 Q1108.9829,708.5 1109.6079,707.9219 L1109.6079,710.6406 Z " fill="#000000"/><text fill="#000000" font-family="sans-serif" font-size="14" lengthAdjust="spacing" textLength="40.4961" x="1127.1392" y="709.8467">Room</text><line style="stroke:#01579B;stroke-width:0.5;" x1="1061.5" x2="1200.7744" y1="721" y2="721"/><rect fill="none" height="6" style="stroke:#C82930;stroke-width:1;" width="6" x="1068.5" y="731.6484"/><text fill="#000000" font-family="sans-serif" font-size="14" lengthAdjust="spacing" textLength="105.5879" x="1080.5" y="737.9951">number: String</text><rect fill="none" height="6" style="stroke:#C82930;stroke-width:1;" width="6" x="1068.5" y="747.9453"/><text fill="#000000" font-family="sans-serif" font-size="14" lengthAdjust="spacing" textLength="115.2744" x="1080.5" y="754.292">type: RoomType</text><line style="stroke:#01579B;stroke-width:0.5;" x1="1061.5" x2="1200.7744" y1="761.5938" y2="761.5938"/></g><!--class Address--><g class="entity" data-entity="Address" data-source-line="45" data-uid="ent0008" id="entity_Address"><rect fill="#E1F5FE" height="178.375" rx="2.5" ry="2.5" style="stroke:#01579B;stroke-width:0.5;" width="272.1484" x="515" y="451"/><ellipse cx="618.6704" cy="467" fill="#ADD1B2" rx="11" ry="11" style="stroke:#181818;stroke-width:1;"/><path d="M621.6392,472.6406 Q621.061,472.9375 620.4204,473.0781 Q619.7798,473.2344 619.0767,473.2344 Q616.5767,473.2344 615.2485,471.5938 Q613.936,469.9375 613.936,466.8125 Q613.936,463.6875 615.2485,462.0313 Q616.5767,460.375 619.0767,460.375 Q619.7798,460.375 620.4204,460.5313 Q621.0767,460.6875 621.6392,460.9844 L621.6392,463.7031 Q621.0142,463.125 620.4204,462.8594 Q619.8267,462.5781 619.2017,462.5781 Q617.8579,462.5781 617.1704,463.6563 Q616.4829,464.7188 616.4829,466.8125 Q616.4829,468.9063 617.1704,469.9844 Q617.8579,471.0469 619.2017,471.0469 Q619.8267,471.0469 620.4204,470.7813 Q621.0142,470.5 621.6392,469.9219 L621.6392,472.6406 Z " fill="#000000"/><text fill="#000000" font-family="sans-serif" font-size="14" lengthAdjust="spacing" textLength="56.3076" x="639.1704" y="471.8467">Address</text><line style="stroke:#01579B;stroke-width:0.5;" x1="516" x2="786.1484" y1="483" y2="483"/><rect fill="none" height="6" style="stroke:#C82930;stroke-width:1;" width="6" x="523" y="493.6484"/><text fill="#000000" font-family="sans-serif" font-size="14" lengthAdjust="spacing" textLength="102.3066" x="535" y="499.9951">region: Region</text><rect fill="none" height="6" style="stroke:#C82930;stroke-width:1;" width="6" x="523" y="509.9453"/><text fill="#000000" font-family="sans-serif" font-size="14" lengthAdjust="spacing" textLength="113.6475" x="535" y="516.292">locality: Locality</text><rect fill="none" height="6" style="stroke:#C82930;stroke-width:1;" width="6" x="523" y="526.2422"/><text fill="#000000" font-family="sans-serif" font-size="14" lengthAdjust="spacing" textLength="246.1484" x="535" y="532.5889">planningElement: PlanningElement</text><rect fill="none" height="6" style="stroke:#C82930;stroke-width:1;" width="6" x="523" y="542.5391"/><text fill="#000000" font-family="sans-serif" font-size="14" lengthAdjust="spacing" textLength="93.2695" x="535" y="548.8857">street: Street</text><rect fill="none" height="6" style="stroke:#C82930;stroke-width:1;" width="6" x="523" y="558.8359"/><text fill="#000000" font-family="sans-serif" font-size="14" lengthAdjust="spacing" textLength="122.0352" x="535" y="565.1826">building: Building</text><rect fill="none" height="6" style="stroke:#C82930;stroke-width:1;" width="6" x="523" y="575.1328"/><text fill="#000000" font-family="sans-serif" font-size="14" lengthAdjust="spacing" textLength="86.1875" x="535" y="581.4795">room: Room</text><line style="stroke:#01579B;stroke-width:0.5;" x1="516" x2="786.1484" y1="588.7813" y2="588.7813"/><ellipse cx="526" cy="602.4297" fill="#84BE84" rx="3" ry="3" style="stroke:#038048;stroke-width:1;"/><text fill="#000000" font-family="sans-serif" font-size="14" lengthAdjust="spacing" textLength="231.0137" x="535" y="605.7764">Address(builder: AddressBuilder)</text><ellipse cx="526" cy="618.7266" fill="#84BE84" rx="3" ry="3" style="stroke:#038048;stroke-width:1;"/><text fill="#000000" font-family="sans-serif" font-size="14" lengthAdjust="spacing" textLength="167.8359" x="535" y="622.0732">GetFullAddress(): String</text></g><!--class IBuilder--><g class="entity" data-entity="IBuilder" data-source-line="56" data-uid="ent0009" id="entity_IBuilder"><rect fill="#E1F5FE" height="64.2969" rx="2.5" ry="2.5" style="stroke:#01579B;stroke-width:0.5;" width="123.542" x="589" y="7"/><ellipse cx="621.0552" cy="23" fill="#B4A7E5" rx="11" ry="11" style="stroke:#181818;stroke-width:1;"/><path d="M616.9771,18.7656 L616.9771,16.6094 L624.3677,16.6094 L624.3677,18.7656 L621.8989,18.7656 L621.8989,26.8438 L624.3677,26.8438 L624.3677,29 L616.9771,29 L616.9771,26.8438 L619.4458,26.8438 L619.4458,18.7656 L616.9771,18.7656 Z " fill="#000000"/><text fill="#000000" font-family="sans-serif" font-size="14" font-style="italic" lengthAdjust="spacing" textLength="53.6416" x="638.8452" y="27.8467">IBuilder</text><line style="stroke:#01579B;stroke-width:0.5;" x1="590" x2="711.542" y1="39" y2="39"/><line style="stroke:#01579B;stroke-width:0.5;" x1="590" x2="711.542" y1="47" y2="47"/><text fill="#000000" font-family="sans-serif" font-size="14" lengthAdjust="spacing" textLength="111.542" x="595" y="63.9951">Build(): Address</text></g><!--class AddressBuilder--><g class="entity" data-entity="AddressBuilder" data-source-line="60" data-uid="ent0010" id="entity_AddressBuilder"><rect fill="#E1F5FE" height="259.8594" rx="2.5" ry="2.5" style="stroke:#01579B;stroke-width:0.5;" width="585.7676" x="358" y="131"/><ellipse cx="593.7236" cy="147" fill="#ADD1B2" rx="11" ry="11" style="stroke:#181818;stroke-width:1;"/><path d="M596.6924,152.6406 Q596.1143,152.9375 595.4736,153.0781 Q594.833,153.2344 594.1299,153.2344 Q591.6299,153.2344 590.3018,151.5938 Q588.9893,149.9375 588.9893,146.8125 Q588.9893,143.6875 590.3018,142.0313 Q591.6299,140.375 594.1299,140.375 Q594.833,140.375 595.4736,140.5313 Q596.1299,140.6875 596.6924,140.9844 L596.6924,143.7031 Q596.0674,143.125 595.4736,142.8594 Q594.8799,142.5781 594.2549,142.5781 Q592.9111,142.5781 592.2236,143.6563 Q591.5361,144.7188 591.5361,146.8125 Q591.5361,148.9063 592.2236,149.9844 Q592.9111,151.0469 594.2549,151.0469 Q594.8799,151.0469 595.4736,150.7813 Q596.0674,150.5 596.6924,149.9219 L596.6924,152.6406 Z " fill="#000000"/><text fill="#000000" font-family="sans-serif" font-size="14" lengthAdjust="spacing" textLength="105.8203" x="614.2236" y="151.8467">AddressBuilder</text><line style="stroke:#01579B;stroke-width:0.5;" x1="359" x2="942.7676" y1="163" y2="163"/><rect fill="none" height="6" style="stroke:#C82930;stroke-width:1;" width="6" x="366" y="173.6484"/><text fill="#000000" font-family="sans-serif" font-size="14" lengthAdjust="spacing" textLength="102.3066" x="378" y="179.9951">region: Region</text><rect fill="none" height="6" style="stroke:#C82930;stroke-width:1;" width="6" x="366" y="189.9453"/><text fill="#000000" font-family="sans-serif" font-size="14" lengthAdjust="spacing" textLength="113.6475" x="378" y="196.292">locality: Locality</text><rect fill="none" height="6" style="stroke:#C82930;stroke-width:1;" width="6" x="366" y="206.2422"/><text fill="#000000" font-family="sans-serif" font-size="14" lengthAdjust="spacing" textLength="246.1484" x="378" y="212.5889">planningElement: PlanningElement</text><rect fill="none" height="6" style="stroke:#C82930;stroke-width:1;" width="6" x="366" y="222.5391"/><text fill="#000000" font-family="sans-serif" font-size="14" lengthAdjust="spacing" textLength="93.2695" x="378" y="228.8857">street: Street</text><rect fill="none" height="6" style="stroke:#C82930;stroke-width:1;" width="6" x="366" y="238.8359"/><text fill="#000000" font-family="sans-serif" font-size="14" lengthAdjust="spacing" textLength="122.0352" x="378" y="245.1826">building: Building</text><rect fill="none" height="6" style="stroke:#C82930;stroke-width:1;" width="6" x="366" y="255.1328"/><text fill="#000000" font-family="sans-serif" font-size="14" lengthAdjust="spacing" textLength="86.1875" x="378" y="261.4795">room: Room</text><line style="stroke:#01579B;stroke-width:0.5;" x1="359" x2="942.7676" y1="268.7813" y2="268.7813"/><ellipse cx="369" cy="282.4297" fill="#84BE84" rx="3" ry="3" style="stroke:#038048;stroke-width:1;"/><text fill="#000000" font-family="sans-serif" font-size="14" lengthAdjust="spacing" textLength="420.3418" x="378" y="285.7764">SetRegion(name: String, type: RegionType): AddressBuilder</text><ellipse cx="369" cy="298.7266" fill="#84BE84" rx="3" ry="3" style="stroke:#038048;stroke-width:1;"/><text fill="#000000" font-family="sans-serif" font-size="14" lengthAdjust="spacing" textLength="431.6211" x="378" y="302.0732">SetLocality(name: String, type: LocalityType): AddressBuilder</text><ellipse cx="369" cy="315.0234" fill="#84BE84" rx="3" ry="3" style="stroke:#038048;stroke-width:1;"/><text fill="#000000" font-family="sans-serif" font-size="14" lengthAdjust="spacing" textLength="559.7676" x="378" y="318.3701">SetPlanningElement(name: String, type: PlanningElementType): AddressBuilder</text><ellipse cx="369" cy="331.3203" fill="#84BE84" rx="3" ry="3" style="stroke:#038048;stroke-width:1;"/><text fill="#000000" font-family="sans-serif" font-size="14" lengthAdjust="spacing" textLength="408.9258" x="378" y="334.667">SetStreet(name: String, type: StreetType): AddressBuilder</text><ellipse cx="369" cy="347.6172" fill="#84BE84" rx="3" ry="3" style="stroke:#038048;stroke-width:1;"/><text fill="#000000" font-family="sans-serif" font-size="14" lengthAdjust="spacing" textLength="451.7529" x="378" y="350.9639">SetBuilding(number: String, type: BuildingType): AddressBuilder</text><ellipse cx="369" cy="363.9141" fill="#84BE84" rx="3" ry="3" style="stroke:#038048;stroke-width:1;"/><text fill="#000000" font-family="sans-serif" font-size="14" lengthAdjust="spacing" textLength="419.1592" x="378" y="367.2607">SetRoom(number: String, type: RoomType): AddressBuilder</text><ellipse cx="369" cy="380.2109" fill="#84BE84" rx="3" ry="3" style="stroke:#038048;stroke-width:1;"/><text fill="#000000" font-family="sans-serif" font-size="14" lengthAdjust="spacing" textLength="111.542" x="378" y="383.5576">Build(): Address</text></g><!--class RegionType--><g class="entity" data-entity="RegionType" data-source-line="90" data-uid="ent0019" id="entity_RegionType"><rect fill="#E1F5FE" height="145.7813" rx="2.5" ry="2.5" style="stroke:#01579B;stroke-width:0.5;" width="177.5596" x="7" y="830"/><ellipse cx="50.2001" cy="846" fill="#EB937F" rx="11" ry="11" style="stroke:#181818;stroke-width:1;"/><path d="M54.3095,852 L46.5908,852 L46.5908,839.6094 L54.3095,839.6094 L54.3095,841.7656 L49.0439,841.7656 L49.0439,844.4375 L53.8095,844.4375 L53.8095,846.5938 L49.0439,846.5938 L49.0439,849.8438 L54.3095,849.8438 L54.3095,852 Z " fill="#000000"/><text fill="#000000" font-family="sans-serif" font-size="14" lengthAdjust="spacing" textLength="82.8926" x="70.4668" y="850.8467">RegionType</text><line style="stroke:#01579B;stroke-width:0.5;" x1="8" x2="183.5596" y1="862" y2="862"/><text fill="#000000" font-family="sans-serif" font-size="14" lengthAdjust="spacing" textLength="68.5713" x="13" y="878.9951">REPUBLIC</text><text fill="#000000" font-family="sans-serif" font-size="14" lengthAdjust="spacing" textLength="37.0371" x="13" y="895.292">KRAY</text><text fill="#000000" font-family="sans-serif" font-size="14" lengthAdjust="spacing" textLength="55.4395" x="13" y="911.5889">OBLAST</text><text fill="#000000" font-family="sans-serif" font-size="14" lengthAdjust="spacing" textLength="101.6367" x="13" y="927.8857">FEDERAL_CITY</text><text fill="#000000" font-family="sans-serif" font-size="14" lengthAdjust="spacing" textLength="165.5596" x="13" y="944.1826">AUTONOMOUS_OBLAST</text><text fill="#000000" font-family="sans-serif" font-size="14" lengthAdjust="spacing" textLength="161.1436" x="13" y="960.4795">AUTONOMOUS_OKRUG</text><line style="stroke:#01579B;stroke-width:0.5;" x1="8" x2="183.5596" y1="967.7813" y2="967.7813"/></g><!--class LocalityType--><g class="entity" data-entity="LocalityType" data-source-line="99" data-uid="ent0020" id="entity_LocalityType"><rect fill="#E1F5FE" height="129.4844" rx="2.5" ry="2.5" style="stroke:#01579B;stroke-width:0.5;" width="201.4512" x="220.5" y="838.5"/><ellipse cx="272.7095" cy="854.5" fill="#EB937F" rx="11" ry="11" style="stroke:#181818;stroke-width:1;"/><path d="M276.8188,860.5 L269.1001,860.5 L269.1001,848.1094 L276.8188,848.1094 L276.8188,850.2656 L271.5532,850.2656 L271.5532,852.9375 L276.3188,852.9375 L276.3188,855.0938 L271.5532,855.0938 L271.5532,858.3438 L276.8188,858.3438 L276.8188,860.5 Z " fill="#000000"/><text fill="#000000" font-family="sans-serif" font-size="14" lengthAdjust="spacing" textLength="88.5322" x="293.2095" y="859.3467">LocalityType</text><line style="stroke:#01579B;stroke-width:0.5;" x1="221.5" x2="420.9512" y1="870.5" y2="870.5"/><text fill="#000000" font-family="sans-serif" font-size="14" lengthAdjust="spacing" textLength="31.0078" x="226.5" y="887.4951">CITY</text><text fill="#000000" font-family="sans-serif" font-size="14" lengthAdjust="spacing" textLength="58.5771" x="226.5" y="903.792">VILLAGE</text><text fill="#000000" font-family="sans-serif" font-size="14" lengthAdjust="spacing" textLength="189.4512" x="226.5" y="920.0889">SETTLEMENT_TYPE_URBAN</text><text fill="#000000" font-family="sans-serif" font-size="14" lengthAdjust="spacing" textLength="76.3779" x="226.5" y="936.3857">DEREVNYA</text><text fill="#000000" font-family="sans-serif" font-size="14" lengthAdjust="spacing" textLength="59.2539" x="226.5" y="952.6826">KHUTOR</text><line style="stroke:#01579B;stroke-width:0.5;" x1="221.5" x2="420.9512" y1="959.9844" y2="959.9844"/></g><!--class PlanningElementType--><g class="entity" data-entity="PlanningElementType" data-source-line="107" data-uid="ent0021" id="entity_PlanningElementType"><rect fill="#E1F5FE" height="129.4844" rx="2.5" ry="2.5" style="stroke:#01579B;stroke-width:0.5;" width="184.6055" x="456.5" y="838.5"/><ellipse cx="471.5" cy="854.5" fill="#EB937F" rx="11" ry="11" style="stroke:#181818;stroke-width:1;"/><path d="M475.6094,860.5 L467.8906,860.5 L467.8906,848.1094 L475.6094,848.1094 L475.6094,850.2656 L470.3438,850.2656 L470.3438,852.9375 L475.1094,852.9375 L475.1094,855.0938 L470.3438,855.0938 L470.3438,858.3438 L475.6094,858.3438 L475.6094,860.5 Z " fill="#000000"/><text fill="#000000" font-family="sans-serif" font-size="14" lengthAdjust="spacing" textLength="152.6055" x="485.5" y="859.3467">PlanningElementType</text><line style="stroke:#01579B;stroke-width:0.5;" x1="457.5" x2="640.1055" y1="870.5" y2="870.5"/><text fill="#000000" font-family="sans-serif" font-size="14" lengthAdjust="spacing" textLength="111.2617" x="462.5" y="887.4951">MICRODISTRICT</text><text fill="#000000" font-family="sans-serif" font-size="14" lengthAdjust="spacing" textLength="27.9111" x="462.5" y="903.792">SNT</text><text fill="#000000" font-family="sans-serif" font-size="14" lengthAdjust="spacing" textLength="63.9912" x="462.5" y="920.0889">KVARTAL</text><text fill="#000000" font-family="sans-serif" font-size="14" lengthAdjust="spacing" textLength="131.2295" x="462.5" y="936.3857">INDUSTRIAL_ZONE</text><text fill="#000000" font-family="sans-serif" font-size="14" lengthAdjust="spacing" textLength="29.5107" x="462.5" y="952.6826">GSC</text><line style="stroke:#01579B;stroke-width:0.5;" x1="457.5" x2="640.1055" y1="959.9844" y2="959.9844"/></g><!--class StreetType--><g class="entity" data-entity="StreetType" data-source-line="115" data-uid="ent0022" id="entity_StreetType"><rect fill="#E1F5FE" height="145.7813" rx="2.5" ry="2.5" style="stroke:#01579B;stroke-width:0.5;" width="111.709" x="704" y="830"/><ellipse cx="720.136" cy="846" fill="#EB937F" rx="11" ry="11" style="stroke:#181818;stroke-width:1;"/><path d="M724.2454,852 L716.5266,852 L716.5266,839.6094 L724.2454,839.6094 L724.2454,841.7656 L718.9797,841.7656 L718.9797,844.4375 L723.7454,844.4375 L723.7454,846.5938 L718.9797,846.5938 L718.9797,849.8438 L724.2454,849.8438 L724.2454,852 Z " fill="#000000"/><text fill="#000000" font-family="sans-serif" font-size="14" lengthAdjust="spacing" textLength="77.1846" x="734.3884" y="850.8467">StreetType</text><line style="stroke:#01579B;stroke-width:0.5;" x1="705" x2="814.709" y1="862" y2="862"/><text fill="#000000" font-family="sans-serif" font-size="14" lengthAdjust="spacing" textLength="53.4092" x="710" y="878.9951">STREET</text><text fill="#000000" font-family="sans-serif" font-size="14" lengthAdjust="spacing" textLength="57.5654" x="710" y="895.292">AVENUE</text><text fill="#000000" font-family="sans-serif" font-size="14" lengthAdjust="spacing" textLength="36.6953" x="710" y="911.5889">LANE</text><text fill="#000000" font-family="sans-serif" font-size="14" lengthAdjust="spacing" textLength="99.709" x="710" y="927.8857">EMBANKMENT</text><text fill="#000000" font-family="sans-serif" font-size="14" lengthAdjust="spacing" textLength="58.3037" x="710" y="944.1826">SQUARE</text><text fill="#000000" font-family="sans-serif" font-size="14" lengthAdjust="spacing" textLength="87.1787" x="710" y="960.4795">BOULEVARD</text><line style="stroke:#01579B;stroke-width:0.5;" x1="705" x2="814.709" y1="967.7813" y2="967.7813"/></g><!--class BuildingType--><g class="entity" data-entity="BuildingType" data-source-line="124" data-uid="ent0023" id="entity_BuildingType"><rect fill="#E1F5FE" height="113.1875" rx="2.5" ry="2.5" style="stroke:#01579B;stroke-width:0.5;" width="123.1299" x="884.5" y="846.5"/><ellipse cx="899.5" cy="862.5" fill="#EB937F" rx="11" ry="11" style="stroke:#181818;stroke-width:1;"/><path d="M903.6094,868.5 L895.8906,868.5 L895.8906,856.1094 L903.6094,856.1094 L903.6094,858.2656 L898.3438,858.2656 L898.3438,860.9375 L903.1094,860.9375 L903.1094,863.0938 L898.3438,863.0938 L898.3438,866.3438 L903.6094,866.3438 L903.6094,868.5 Z " fill="#000000"/><text fill="#000000" font-family="sans-serif" font-size="14" lengthAdjust="spacing" textLength="91.1299" x="913.5" y="867.3467">BuildingType</text><line style="stroke:#01579B;stroke-width:0.5;" x1="885.5" x2="1006.6299" y1="878.5" y2="878.5"/><text fill="#000000" font-family="sans-serif" font-size="14" lengthAdjust="spacing" textLength="49.5264" x="890.5" y="895.4951">HOUSE</text><text fill="#000000" font-family="sans-serif" font-size="14" lengthAdjust="spacing" textLength="68.0107" x="890.5" y="911.792">BUILDING</text><text fill="#000000" font-family="sans-serif" font-size="14" lengthAdjust="spacing" textLength="84.5605" x="890.5" y="928.0889">STRUCTURE</text><text fill="#000000" font-family="sans-serif" font-size="14" lengthAdjust="spacing" textLength="48.6309" x="890.5" y="944.3857">LITERA</text><line style="stroke:#01579B;stroke-width:0.5;" x1="885.5" x2="1006.6299" y1="951.6875" y2="951.6875"/></g><!--class RoomType--><g class="entity" data-entity="RoomType" data-source-line="131" data-uid="ent0024" id="entity_RoomType"><rect fill="#E1F5FE" height="113.1875" rx="2.5" ry="2.5" style="stroke:#01579B;stroke-width:0.5;" width="108.2979" x="1077" y="846.5"/><ellipse cx="1092.6592" cy="862.5" fill="#EB937F" rx="11" ry="11" style="stroke:#181818;stroke-width:1;"/><path d="M1096.7686,868.5 L1089.0498,868.5 L1089.0498,856.1094 L1096.7686,856.1094 L1096.7686,858.2656 L1091.5029,858.2656 L1091.5029,860.9375 L1096.2686,860.9375 L1096.2686,863.0938 L1091.5029,863.0938 L1091.5029,866.3438 L1096.7686,866.3438 L1096.7686,868.5 Z " fill="#000000"/><text fill="#000000" font-family="sans-serif" font-size="14" lengthAdjust="spacing" textLength="74.833" x="1106.8057" y="867.3467">RoomType</text><line style="stroke:#01579B;stroke-width:0.5;" x1="1078" x2="1184.2979" y1="878.5" y2="878.5"/><text fill="#000000" font-family="sans-serif" font-size="14" lengthAdjust="spacing" textLength="85.8252" x="1083" y="895.4951">APARTMENT</text><text fill="#000000" font-family="sans-serif" font-size="14" lengthAdjust="spacing" textLength="49.875" x="1083" y="911.792">OFFICE</text><text fill="#000000" font-family="sans-serif" font-size="14" lengthAdjust="spacing" textLength="43.8457" x="1083" y="928.0889">ROOM</text><text fill="#000000" font-family="sans-serif" font-size="14" lengthAdjust="spacing" textLength="96.2979" x="1083" y="944.3857">WORK_SPACE</text><line style="stroke:#01579B;stroke-width:0.5;" x1="1078" x2="1184.2979" y1="951.6875" y2="951.6875"/></g><!--reverse link IBuilder to AddressBuilder--><g class="link" data-entity-1="IBuilder" data-entity-2="AddressBuilder" data-source-line="79" data-uid="lnk11" id="link_IBuilder_AddressBuilder"><path codeLine="79" d="M651,89.05 C651,105.4 651,108.66 651,131" fill="none" id="IBuilder-backto-AddressBuilder" style="stroke:#181818;stroke-width:1;stroke-dasharray:7,7;"/><polygon fill="none" points="651,71.05,645,89.05,657,89.05,651,71.05" style="stroke:#181818;stroke-width:1;"/></g><!--link AddressBuilder to Address--><g class="link" data-entity-1="AddressBuilder" data-entity-2="Address" data-source-line="80" data-uid="lnk12" id="link_AddressBuilder_Address"><path codeLine="80" d="M651,391.17 C651,411.34 651,425.78 651,444.76" fill="none" id="AddressBuilder-to-Address" style="stroke:#181818;stroke-width:1;stroke-dasharray:7,7;"/><polygon fill="#181818" points="651,450.76,655,441.76,651,445.76,647,441.76,651,450.76" style="stroke:#181818;stroke-width:1;"/></g><!--reverse link Address to Region--><g class="link" data-entity-1="Address" data-entity-2="Region" data-source-line="82" data-uid="lnk13" id="link_Address_Region"><path codeLine="82" d="M503.2033,592.1943 C419.8133,621.1343 322.36,655.08 226,689 C214.23,693.14 201.77,697.55 189.61,701.87" fill="none" id="Address-backto-Region" style="stroke:#181818;stroke-width:1;"/><polygon fill="#181818" points="514.54,588.26,507.5602,586.4483,503.2033,592.1943,510.1831,594.0061,514.54,588.26" style="stroke:#181818;stroke-width:1;"/></g><!--reverse link Address to Locality--><g class="link" data-entity-1="Address" data-entity-2="Locality" data-source-line="83" data-uid="lnk14" id="link_Address_Locality"><path codeLine="83" d="M504.4365,624.2781 C461.8265,648.4881 427,668.27 390.93,688.76" fill="none" id="Address-backto-Locality" style="stroke:#181818;stroke-width:1;"/><polygon fill="#181818" points="514.87,618.35,507.6772,617.8362,504.4365,624.2781,511.6293,624.7919,514.87,618.35" style="stroke:#181818;stroke-width:1;"/></g><!--reverse link Address to PlanningElement--><g class="link" data-entity-1="Address" data-entity-2="PlanningElement" data-source-line="84" data-uid="lnk15" id="link_Address_PlanningElement"><path codeLine="84" d="M594.1737,639.6602 C582.1437,660.5602 575.88,671.42 565.83,688.87" fill="none" id="Address-backto-PlanningElement" style="stroke:#181818;stroke-width:1;"/><polygon fill="#181818" points="600.16,629.26,593.7001,632.4647,594.1737,639.6602,600.6336,636.4555,600.16,629.26" style="stroke:#181818;stroke-width:1;"/></g><!--reverse link Address to Street--><g class="link" data-entity-1="Address" data-entity-2="Street" data-source-line="85" data-uid="lnk16" id="link_Address_Street"><path codeLine="85" d="M708.341,639.6343 C720.491,660.5343 726.82,671.42 736.96,688.87" fill="none" id="Address-backto-Street" style="stroke:#181818;stroke-width:1;"/><polygon fill="#181818" points="702.31,629.26,701.8674,636.4575,708.341,639.6343,708.7836,632.4368,702.31,629.26" style="stroke:#181818;stroke-width:1;"/></g><!--reverse link Address to Building--><g class="link" data-entity-1="Address" data-entity-2="Building" data-source-line="86" data-uid="lnk17" id="link_Address_Building"><path codeLine="86" d="M797.3989,634.0547 C831.0689,655.4447 855.39,670.91 883.56,688.81" fill="none" id="Address-backto-Building" style="stroke:#181818;stroke-width:1;"/><polygon fill="#181818" points="787.27,627.62,790.1895,634.2137,797.3989,634.0547,794.4794,627.4611,787.27,627.62" style="stroke:#181818;stroke-width:1;"/></g><!--reverse link Address to Room--><g class="link" data-entity-1="Address" data-entity-2="Room" data-source-line="87" data-uid="lnk18" id="link_Address_Room"><path codeLine="87" d="M798.6947,594.6833 C874.1447,622.5933 958.08,654.53 1042,689 C1047.94,691.44 1054.08,694.03 1060.23,696.66" fill="none" id="Address-backto-Room" style="stroke:#181818;stroke-width:1;"/><polygon fill="#181818" points="787.44,590.52,791.6796,596.3532,798.6947,594.6833,794.4551,588.8501,787.44,590.52" style="stroke:#181818;stroke-width:1;"/></g><!--link Region to RegionType--><g class="link" data-entity-1="Region" data-entity-2="RegionType" data-source-line="139" data-uid="lnk25" id="link_Region_RegionType"><path codeLine="139" d="M110.59,770.28 C108.63,787.99 106.9213,803.4566 104.6613,823.8366" fill="none" id="Region-to-RegionType" style="stroke:#181818;stroke-width:1;"/><polygon fill="#181818" points="104,829.8,108.9676,821.2957,104.5511,824.8305,101.0163,820.414,104,829.8" style="stroke:#181818;stroke-width:1;"/></g><!--link Locality to LocalityType--><g class="link" data-entity-1="Locality" data-entity-2="LocalityType" data-source-line="140" data-uid="lnk26" id="link_Locality_LocalityType"><path codeLine="140" d="M321,770.28 C321,790.46 321,809.47 321,832.26" fill="none" id="Locality-to-LocalityType" style="stroke:#181818;stroke-width:1;"/><polygon fill="#181818" points="321,838.26,325,829.26,321,833.26,317,829.26,321,838.26" style="stroke:#181818;stroke-width:1;"/></g><!--link PlanningElement to PlanningElementType--><g class="link" data-entity-1="PlanningElement" data-entity-2="PlanningElementType" data-source-line="141" data-uid="lnk27" id="link_PlanningElement_PlanningElementType"><path codeLine="141" d="M544.39,770.28 C545.1,790.46 545.7595,809.4737 546.5595,832.2637" fill="none" id="PlanningElement-to-PlanningElementType" style="stroke:#181818;stroke-width:1;"/><polygon fill="#181818" points="546.77,838.26,550.4518,829.1252,546.5946,833.2631,542.4567,829.4059,546.77,838.26" style="stroke:#181818;stroke-width:1;"/></g><!--link Street to StreetType--><g class="link" data-entity-1="Street" data-entity-2="StreetType" data-source-line="142" data-uid="lnk28" id="link_Street_StreetType"><path codeLine="142" d="M760,770.28 C760,787.99 760,803.42 760,823.8" fill="none" id="Street-to-StreetType" style="stroke:#181818;stroke-width:1;"/><polygon fill="#181818" points="760,829.8,764,820.8,760,824.8,756,820.8,760,829.8" style="stroke:#181818;stroke-width:1;"/></g><!--link Building to BuildingType--><g class="link" data-entity-1="Building" data-entity-2="BuildingType" data-source-line="143" data-uid="lnk29" id="link_Building_BuildingType"><path codeLine="143" d="M946,770.28 C946,792.84 946,815.43 946,840.2" fill="none" id="Building-to-BuildingType" style="stroke:#181818;stroke-width:1;"/><polygon fill="#181818" points="946,846.2,950,837.2,946,841.2,942,837.2,946,846.2" style="stroke:#181818;stroke-width:1;"/></g><!--link Room to RoomType--><g class="link" data-entity-1="Room" data-entity-2="RoomType" data-source-line="144" data-uid="lnk30" id="link_Room_RoomType"><path codeLine="144" d="M1131,770.28 C1131,792.84 1131,815.43 1131,840.2" fill="none" id="Room-to-RoomType" style="stroke:#181818;stroke-width:1;"/><polygon fill="#181818" points="1131,846.2,1135,837.2,1131,841.2,1127,837.2,1131,846.2" style="stroke:#181818;stroke-width:1;"/></g><!--SRC=[pLRDRfj04Bxp54WzD6c3bLIDgbHL9C2BWup1NS1LUh68JI8h62AC3r5RgKbFLT-Xpn1LYjHBsbU0D-ekExlyX3WvrZvucVs-RtwOqNXrleWlWZHOoYV1xFmiJTRnN4-Y99MVdSxfLre9n2mALYlvaoIJZzP6eprZtq3iBaddOGhstRtzDmUQzAMc4yRhvKCoXc4SwA_lonYQllkgJsJ8XyM1mxD54eEE8iV1CdmhkrcwYC_0b5rU41F3UUHCsOnh9RCWMcINZxCviiaVHq4S4oYAmcKOPu_Bj0XDDO8FmoU8C5oJgwqNqPm0A_PwUHAcdNoERIhW95a-XKrndFbSLXH5pdyML_bT_YV_bTyLF_9RkRWglXNVgOcShlFVSlutlockoV6s-4hCDvJ6_QhpUHgAVbBaj7nF_7s1COBoLoy2BYwQ1RrNOO2jofBnqe7n1EfGLOI7G59aYPQ6bpp6hP91wm86ZJrl0smGPiOwYZXwMzIFb6eHPs5w6in2sGGMRttwHB50gzv8qyb_N218tmqp5jDMlNLtxitVThj-5Py7twbGdy4D6gq4EwKwvd238YjAfr0rYnlul7fRpR7QwPZ73Igqt0yey9byYDtLOv8a6l7TvrwlJMmrNwztA2PLufVo2pBzq8PrasZ1kh7TT_KxwBgwINHSmnVjE4ag5qVLJp0P68rzpJBryc68rUFou6YMwdhbqK1zX5LhgfiUkrDzpx6TaUExqngiRXrYVq2BLNgizn_u558JqxBK0TjxBl8y2usGxKszup6Q-bXJxVA6-4SJ-rXb8HuHHrYeTxGaE1cPEdRwfkjXKsSXkZRx7KvKxAbMUJRjlayX9C6FZiqY6RYwqAyw5MG96258UO9idr4i5RXeHA8UqYmO-hslOjZhZcyXuhaljEiT3Ef7f7u0zqshRze3xjJNFH-KBDCZRqJ8y3O62NLCiXC1E8PXweo67MTK7ZuuU3Xrnognquw6lmAASbZVzcB9KtjZZxVNDmLqRMXOpFIwjdl5ogNsnaujLsaP1IJq3m00]--></g></svg>